<?xml version="1.0" standalone="no"?>
<!DOCTYPE svg PUBLIC "-//W3C//DTD SVG 20010904//EN"
 "http://www.w3.org/TR/2001/REC-SVG-20010904/DTD/svg10.dtd">
<svg version="1.0" xmlns="http://www.w3.org/2000/svg"
 width="768.000000pt" height="768.000000pt" viewBox="0 0 768.000000 768.000000"
 preserveAspectRatio="xMidYMid meet">
<metadata>
Created by potrace 1.10, written by Peter Selinger 2001-2011
</metadata>
<g transform="translate(0.000000,768.000000) scale(0.100000,-0.100000)"
fill="#000000" stroke="none">
<path d="M3610 7570 c-25 -4 -68 -15 -95 -25 -28 -9 -110 -32 -184 -51 -205
-52 -261 -95 -307 -238 -53 -169 -44 -225 65 -384 78 -114 110 -130 286 -147
163 -15 272 -49 320 -101 69 -74 9 -120 -275 -209 -91 -29 -131 -51 -219 -123
-31 -25 -106 -78 -168 -119 -61 -40 -128 -92 -147 -116 -20 -23 -63 -76 -96
-117 -34 -41 -85 -104 -115 -140 -92 -110 -120 -220 -91 -354 24 -105 63 -160
151 -213 102 -61 161 -77 259 -70 89 7 194 36 241 68 16 12 53 51 80 88 28 37
73 80 100 98 83 52 103 72 153 146 40 59 57 75 96 91 43 18 50 19 89 6 88 -31
99 -130 32 -300 -20 -52 -58 -126 -83 -165 -83 -124 -114 -230 -162 -542 -13
-90 -31 -161 -56 -225 -78 -203 -97 -273 -134 -492 -26 -161 -99 -216 -286
-216 -214 0 -416 -50 -629 -155 -84 -41 -192 -86 -245 -101 -118 -33 -172 -60
-241 -119 -65 -56 -128 -98 -233 -156 -48 -27 -107 -72 -151 -116 -40 -39 -97
-84 -126 -99 -91 -46 -124 -72 -171 -137 -25 -35 -78 -90 -119 -123 -84 -67
-111 -112 -134 -220 -19 -89 -8 -137 38 -165 46 -28 86 -36 232 -48 142 -11
310 -48 391 -87 34 -16 72 -48 114 -95 35 -39 81 -82 104 -96 61 -38 103 -80
157 -160 66 -98 80 -107 279 -179 128 -47 228 -60 304 -41 56 15 279 139 325
180 12 12 54 63 92 114 82 108 209 222 294 262 33 16 89 34 125 40 80 14 365
41 433 41 63 0 378 -72 452 -103 81 -34 155 -95 227 -189 108 -139 142 -171
250 -235 134 -79 210 -105 313 -106 75 0 90 3 229 59 161 64 204 94 273 195
17 26 63 70 102 100 39 29 92 79 117 112 27 34 75 78 113 103 108 70 131 98
131 152 0 49 -22 83 -96 148 -36 32 -89 93 -117 136 -64 95 -294 316 -369 354
-28 14 -91 64 -139 110 -67 62 -111 95 -177 128 -48 24 -118 70 -157 102 -78
64 -153 101 -267 133 -111 31 -163 56 -244 116 -39 29 -93 64 -120 78 -71 36
-147 95 -172 133 -29 45 -28 85 7 202 16 53 32 126 35 162 20 191 87 554 117
635 10 28 38 73 62 100 59 69 80 106 115 207 47 132 73 176 161 268 45 47 103
117 129 155 62 90 96 110 187 110 113 -1 165 -32 340 -203 223 -218 233 -247
244 -747 8 -343 9 -352 63 -402 30 -28 131 -74 226 -103 80 -24 112 -23 238
10 181 48 190 59 279 304 72 197 79 331 29 521 -26 98 -43 168 -100 405 -20
85 -42 167 -50 181 -13 26 -100 109 -114 109 -14 0 -50 79 -50 110 0 23 9 41
34 66 28 28 41 34 79 34 80 0 114 -18 317 -166 120 -87 359 -212 424 -220 93
-13 250 48 316 123 50 57 70 117 77 228 6 102 -7 190 -38 249 -12 23 -73 92
-137 155 -106 104 -124 117 -226 167 -61 30 -141 78 -177 107 -120 97 -210
127 -559 183 -209 34 -235 36 -370 30 -80 -3 -206 -15 -280 -26 -74 -11 -187
-23 -250 -27 -103 -5 -121 -4 -161 14 -28 12 -58 36 -75 59 -15 22 -42 58 -58
80 -17 23 -57 61 -89 85 -33 24 -79 68 -102 97 -57 69 -87 93 -162 131 -35 17
-98 63 -140 102 -43 39 -95 79 -115 90 -20 10 -127 37 -237 59 -205 41 -327
72 -441 114 -78 29 -130 36 -190 26z"/>
<path d="M1072 1680 c-57 -26 -272 -240 -302 -300 -35 -69 -77 -117 -139 -159
-31 -21 -85 -69 -121 -106 -59 -60 -80 -74 -220 -142 -85 -41 -185 -82 -223
-91 l-67 -16 0 -262 0 -261 52 -6 c29 -3 96 -24 149 -46 52 -22 121 -44 152
-49 116 -18 315 6 398 48 22 12 86 56 142 98 177 134 250 151 432 97 123 -36
147 -49 227 -123 39 -35 85 -70 104 -78 42 -18 182 -50 254 -59 234 -28 380
-67 507 -136 60 -32 84 -39 128 -39 30 0 56 4 59 9 3 5 17 8 30 9 14 0 44 9
68 20 24 11 81 31 128 45 47 14 111 35 144 47 32 11 122 34 200 51 190 40 260
69 344 141 112 97 194 124 347 115 135 -8 155 -17 322 -151 70 -56 186 -95
386 -126 187 -30 254 -49 350 -96 48 -24 98 -44 111 -44 14 0 28 -4 31 -10 8
-12 89 -13 113 -1 9 5 37 15 62 22 25 7 50 16 55 20 30 22 216 69 448 114 205
40 299 75 391 144 80 61 179 109 296 142 53 16 75 17 119 9 75 -14 167 -61
269 -137 106 -80 144 -98 264 -123 166 -35 242 -26 396 48 35 17 95 36 133 42
l69 12 0 259 c0 257 0 259 -21 259 -38 0 -137 30 -211 64 -40 18 -104 46 -143
62 -69 29 -106 59 -178 148 -22 25 -66 65 -98 87 -59 40 -83 71 -160 203 -37
63 -154 170 -242 221 -45 25 -62 29 -127 30 -66 0 -85 -5 -145 -34 -85 -42
-164 -115 -255 -236 -37 -49 -91 -109 -119 -133 -28 -24 -83 -82 -122 -129
-39 -46 -86 -93 -103 -104 -54 -34 -150 -58 -336 -84 -203 -28 -378 -32 -485
-11 -99 20 -201 43 -268 61 -151 40 -247 118 -332 270 -41 75 -73 113 -186
226 -75 75 -148 145 -163 154 -35 23 -195 33 -262 16 -65 -17 -95 -41 -158
-124 -29 -40 -70 -90 -91 -112 -20 -22 -62 -71 -92 -110 -81 -101 -117 -138
-218 -223 -130 -109 -166 -122 -385 -147 -291 -33 -487 -28 -670 16 -140 33
-199 69 -298 178 -47 53 -110 121 -140 151 -30 30 -96 107 -147 170 -113 140
-114 141 -199 181 -90 42 -190 50 -254 19z"/>
</g>
</svg>
